<svg preserveAspectRatio="none" data-bbox="18.997 18.999 160.006 160.002" viewBox="18.997 18.999 160.006 160.002" height="200" width="200" xmlns="http://www.w3.org/2000/svg" data-type="shape" role="presentation" aria-hidden="true">
    <g>
        <path d="M24.635 128.529l6.716-17.104-12.354-13.603 12.75-13.231L25.536 67.3l16.841-7.345.881-18.356 18.372-.341 7.841-16.618 17.104 6.713 13.6-12.354 13.232 12.748 17.294-6.206 7.347 16.838 18.351.882.343 18.372 16.62 7.84-6.713 17.105 12.354 13.601-12.748 13.23 6.206 17.296-16.841 7.346-.883 18.354-18.371.342-7.838 16.612-17.103-6.711-13.598 12.353-13.235-12.75-17.294 6.211-7.346-16.84-18.354-.885-.342-18.37-16.621-7.838z"></path>
    </g>
</svg>