<svg width="32" height="32" viewBox="0 0 32 32"
    xmlns="http://www.w3.org/2000/svg" style="border-radius: 0px; fill: rgb(255, 255, 255); width: 32px; height: 32px; flex-shrink: 0;">
    <path d="M3.654 4h24.692C29.846 4 31 5.249 31 6.61v15.666c0 1.475-1.154 2.61-2.654 2.61H20.27l-3.115 4.768a1.415 1.415 0 01-2.308 0l-3.115-4.768H3.654C2.269 24.886 1 23.751 1 22.276V6.61C1 5.249 2.27 4 3.654 4zm4.79 8.438c1.022 0 1.931.795 1.931 1.818 0 1.022-.91 1.931-1.932 1.931-1.023 0-1.818-.909-1.818-1.931 0-1.023.795-1.819 1.818-1.819zm7.556 0c1.055 0 1.875.795 1.875 1.818 0 1.022-.82 1.931-1.875 1.931-1.055 0-1.875-.909-1.875-1.931 0-1.023.82-1.819 1.875-1.819zm7.5 0c1.055 0 1.875.795 1.875 1.818 0 1.022-.82 1.931-1.875 1.931-1.055 0-1.875-.909-1.875-1.931 0-1.023.82-1.819 1.875-1.819z" fill="currentColor" fill-rule="evenodd"></path>
</svg>